# AST/ASF file generated using VICON BodyLanguage
# -----------------------------------------------
:version 1.10
:name VICON
:units
  mass 1.0
  length 0.45
  angle deg
:documentation
   .ast/.asf automatically generated from VICON data using
   VICON BodyBuilder and BodyLanguage model FoxedUp or BRILLIANT.MOD
:root
   order TX TY TZ RX RY RZ
   axis XYZ
   position 0 0 0  
   orientation 0 0 0 
:bonedata
  begin
     id 1 
     name lhipjoint
     direction 0.61522 -0.761478 0.204097 
     length 2.55743 
     axis 0 0 0  XYZ
  end
  begin
     id 2 
     name lfemur
     direction 0.34202 -0.939693 0  
     length 7.61162  
     axis 0 0 20  XYZ
    dof rx ry rz
    limits (-160.0 20.0)
           (-70.0 70.0)
           (-60.0 70.0)
  end
  begin
     id 3 
     name ltibia
     direction 0.34202 -0.939693 0   
     length 8.12393   
     axis 0 0 20   XYZ
    dof rx
    limits (-10.0 170.0)
  end
  begin
     id 4 
     name lfoot
     direction 0.0841971 -0.23133 0.969225   
     length 2.3572   
     axis -90 7.62852e-016 20   XYZ
    dof rx rz
    limits (-45.0 90.0)
           (-70.0 20.0)
  end
  begin
     id 5 
     name ltoes
     direction 1.53562e-011 -4.22209e-011 1   
     length 1.17993   
     axis -90 7.62852e-016 20   XYZ
    dof rx
    limits (-90.0 20.0)
  end
  begin
     id 6 
     name rhipjoint
     direction -0.625247 -0.75382 0.202044   
     length 2.58341  
     axis 0 0 0  XYZ 
  end
  begin
     id 7 
     name rfemur
     direction -0.34202 -0.939693 0   
     length 7.42147   
     axis 0 0 -20   XYZ
    dof rx ry rz
    limits (-160.0 20.0)
           (-70.0 70.0)
           (-70.0 60.0)
  end
  begin
     id 8 
     name rtibia
     direction -0.34202 -0.939693 0   
     length 8.20893   
     axis 0 0 -20   XYZ
    dof rx
    limits (-10.0 170.0)
 end
 begin
     id 9 
     name rfoot
     direction -0.124331 -0.341598 0.931586   
     length 2.45604  
     axis -90 -7.62852e-016 -20   XYZ
    dof rx rz
    limits (-45.0 90.0)
           (-20.0 70.0)
  end
  begin
     id 10 
     name rtoes
     direction -1.5353e-011 -4.2199e-011 1   
     length 1.21323   
     axis -90 -7.62852e-016 -20   XYZ
    dof rx
    limits (-90.0 20.0)
  end
  begin
     id 11 
     name lowerback
     direction -0.0218484 0.994884 -0.0986303   
     length 2.00523   
     axis 0 0 0   XYZ
    dof rx ry rz
    limits (-20.0 45.0)
           (-30.0 30.0)
           (-30.0 30.0)
  end
  begin
     id 12 
     name upperback
     direction -0.0097305 0.999717 -0.0217111   
     length 2.01352   
     axis 0 0 0   XYZ
    dof rx ry rz
    limits (-20.0 45.0)
           (-30.0 30.0)
           (-30.0 30.0)
  end
  begin
     id 13 
     name thorax
     direction -0.000928262 0.999699 0.0245198   
     length 2.02938   
     axis 0 0 0   XYZ
    dof rx ry rz
    limits (-20.0 45.0)
           (-30.0 30.0)
           (-30.0 30.0)
  end
  begin
     id 14 
     name lowerneck
     direction -0.0307979 0.998024 0.0547665   
     length 1.77263   
     axis 0 0 0   XYZ
    dof rx ry rz
    limits (-20.0 45.0)
           (-30.0 30.0)
           (-30.0 30.0)
  end
  begin
     id 15 
     name upperneck
     direction 0.0531587 0.996611 -0.0627734   
     length 1.77971   
     axis 0 0 0   XYZ
    dof rx ry rz
    limits (-20.0 45.0)
           (-30.0 30.0)
           (-30.0 30.0)
  end
  begin
     id 16
     name head
     direction 0.0213833 0.999404 -0.0271147  
     length 1.78263  
     axis 0 0 0   XYZ
    dof rx ry rz
    limits (-20.0 45.0)
           (-30.0 30.0)
           (-30.0 30.0)
  end
  begin
     id 17 
     name lclavicle
     direction 0.940017 0.332249 -0.0773233  
     length 3.73315  
     axis 0 0 0   XYZ
    dof ry rz
    limits (-20.0 10.0)
           (0.0 20.0)
  end
  begin
     id 18 
     name lhumerus
     direction 1 -4.48944e-011 7.52288e-028   
     length 5.40188   
     axis 180 -30 -90   XYZ
    dof rx ry rz
    limits (-60.0 90.0)
           (-90.0 90.0)
           (-90.0 90.0)
  end
  begin
     id 19
     name lradius
     direction 1 -4.48988e-011 1.48381e-027   
     length 3.68559   
     axis 180 -30 -90   XYZ
    dof rx
    limits (-10.0 170.0)
  end
  begin
     id 20
     name lwrist
     direction 1 -4.48925e-011 2.56952e-028   
     length 1.84279   
     axis -5.12785e-016 90 90   XYZ
    dof ry
    limits (-180.0 0.0)
 end
  begin
     id 21 
     name lhand
     direction 1 -4.49009e-011 5.13905e-028   
     length 0.61753   
     axis -3.27915e-016 90 90   XYZ
    dof rx rz
    limits (-90.0 90.0)
           (-45.0 45.0)
  end
  begin
     id 22 
     name lfingers
     direction 1 -4.49012e-011 1.02781e-027   
     length 0.497868   
     axis -6.5583e-016 90 90   XYZ
    dof rx
    limits (0.0 90.0)
  end
  begin
     id 23
     name lthumb
     direction 0.707107 -6.34987e-011 0.707107   
     length 0.714842   
     axis -90 45 2.85299e-015   XYZ
    dof rx rz
    limits (-45.0 45.0)
           (-45.0 45.0)
  end
  begin
     id 24 
     name rclavicle
     direction -0.9009 0.425937 -0.0834057   
     length 3.27864  
     axis 0 0 0   XYZ 
    dof ry rz
    limits (-10.0 20.0)
           (-20.0 0.0)
  end
  begin
     id 25 
     name rhumerus
     direction -1 -4.48953e-011 -1.03572e-027  
     length 6.1067   
     axis 180 30 90   XYZ
    dof rx ry rz
    limits (-90.0 60.0)
           (-90.0 90.0)
           (-90.0 90.0)
  end
  begin
     id 26 
     name rradius
     direction -1 -4.48975e-011 1.20742e-027   
     length 3.63052   
     axis 180 30 90   XYZ
    dof rx
    limits (-10.0 170.0)
  end
  begin
     id 27 
     name rwrist
     direction -1 -4.49017e-011 2.56952e-028   
     length 1.81526   
     axis -5.12785e-016 -90 -90   XYZ
    dof ry
    limits (-180.0 0.0)
  end
  begin
     id 28
     name rhand
     direction -1 -4.48832e-011 5.13905e-028   
     length 0.583848   
     axis -3.27915e-016 -90 -90   XYZ
    dof rx rz
    limits (-90.0 90.0)
           (-45.0 45.0)
  end
  begin
     id 29
     name rfingers
     direction -1 -4.48729e-011 1.02781e-027   
     length 0.470713   
     axis -6.5583e-016 -90 -90   XYZ
    dof rx
    limits (0.0 90.0)
  end
  begin
     id 30
     name rthumb
     direction -0.707107 -6.34964e-011 0.707107   
     length 0.675852   
     axis -90 -45 -2.85299e-015   XYZ
    dof rx rz
    limits (-45.0 45.0)
           (-45.0 45.0)
  end
:hierarchy
  begin
    root lhipjoint rhipjoint lowerback
    lhipjoint lfemur
    lfemur ltibia
    ltibia lfoot
    lfoot ltoes
    rhipjoint rfemur
    rfemur rtibia
    rtibia rfoot
    rfoot rtoes
    lowerback upperback
    upperback thorax
    thorax lowerneck lclavicle rclavicle
    lowerneck upperneck
    upperneck head
    lclavicle lhumerus
    lhumerus lradius
    lradius lwrist
    lwrist lhand lthumb
    lhand lfingers
    rclavicle rhumerus
    rhumerus rradius
    rradius rwrist
    rwrist rhand rthumb
    rhand rfingers
  end

#!OML:ASF F:\VICON\USERDATA\INSTALL\rory3\rory3.ASF
:FULLY-SPECIFIED
:DEGREES
1
root -1.30651 18.692 -3.12679 1.58899 -8.32267 1.75717
lowerback 3.31049 -0.543283 -4.40061
upperback 0.438237 -0.899064 -1.03543
thorax -1.35512 -0.429391 1.4422
lowerneck -8.43724 -6.22383 -10.7312
upperneck 6.88159 -8.88821 18.1329
head 4.78838 -3.82287 6.8207
rclavicle -1.799e-014 -8.74653e-015
rhumerus -36.7065 -2.40885 -76.3951
rradius 29.2018
rwrist 18.1709
rhand -24.2007 4.56554
rfingers 7.12502
rthumb 2.28351 -25.402
lclavicle -1.799e-014 -8.74653e-015
lhumerus -31.556 13.5854 77.7523
lradius 21.3163
lwrist -11.6947
lhand -28.6047 19.2307
lfingers 7.12502
lthumb -1.96997 49.2014
rfemur -9.3764 19.5528 17.3319
rtibia 27.0459
rfoot -19.7388 -18.4289
rtoes -1.51908
lfemur -6.52442 -5.29884 -19.3968
ltibia 23.3618
lfoot -21.3411 21.6072
ltoes 1.84454
2
root -1.30621 18.6906 -3.13 1.55928 -8.24244 1.81945
lowerback 3.35667 -0.501855 -4.39513
upperback 0.480566 -0.845062 -1.04632
thorax -1.34079 -0.403368 1.42594
lowerneck -8.44277 -6.22168 -10.7518
upperneck 6.88583 -8.88413 18.1491
head 4.7918 -3.82008 6.82995
rclavicle -1.42131e-014 -9.54166e-015
rhumerus -36.7071 -2.18315 -76.3582
rradius 29.1935
rwrist 17.8689
rhand -22.895 -0.810501
rfingers 7.12502
rthumb 3.54447 -30.7608
lclavicle -1.42131e-014 -9.54166e-015
lhumerus -31.6575 13.3189 77.8262
lradius 21.8135
lwrist -11.4146
lhand -28.4415 19.4869
lfingers 7.12502
lthumb -1.81233 49.459
rfemur -9.36642 19.4834 17.2736
rtibia 27.0996
rfoot -19.7673 -18.4344
rtoes -1.57614
lfemur -6.4392 -5.37384 -19.4514
ltibia 23.2363
lfoot -21.4667 21.4444
ltoes 2.18709
3
root -1.30622 18.6923 -3.13285 1.53382 -8.13028 1.95013
lowerback 3.34851 -0.479116 -4.41733
upperback 0.547933 -0.813573 -1.09605
thorax -1.26913 -0.389998 1.3854
lowerneck -8.35729 -6.2148 -10.7778
upperneck 6.75698 -8.85932 18.1527
head 4.73609 -3.8165 6.83904
rclavicle -8.52289e-015 -1.63003e-014
rhumerus -36.6308 -2.18222 -76.221
rradius 29.221
rwrist 18.2118
rhand -23.1004 1.92902
rfingers 7.12502
rthumb 3.34617 -28.0245
lclavicle -8.52289e-015 -1.63003e-014
lhumerus -31.6672 13.1257 77.8441
lradius 22.1862
lwrist -11.1304
lhand -28.3929 19.5813
lfingers 7.12502
lthumb -1.76536 49.5537
rfemur -9.33738 19.341 17.1322
rtibia 27.0877
rfoot -19.8018 -18.3866
rtoes -1.6736
lfemur -6.40392 -5.41438 -19.5892
ltibia 23.2063
lfoot -21.4741 21.3794
ltoes 2.05556
4
root -1.30674 18.6947 -3.13785 1.58967 -8.02405 1.87507
lowerback 3.37114 -0.439589 -4.2325
upperback 0.578456 -0.754407 -1.08838
thorax -1.25605 -0.361873 1.28755
lowerneck -8.36971 -6.20466 -10.7947
upperneck 6.68275 -8.82995 18.1433
head 4.71195 -3.80441 6.84089
rclavicle -6.03808e-015 -2.98177e-014
rhumerus -36.5832 -1.98988 -76.2184
rradius 29.0509
rwrist 17.0869
rhand -23.9301 3.79231
rfingers 7.12502
rthumb 2.54483 -26.1723
lclavicle -6.03808e-015 -2.98177e-014
lhumerus -31.6082 12.8507 77.9124
lradius 22.4343
lwrist -10.7245
lhand -28.528 19.5437
lfingers 7.12502
lthumb -1.89588 49.515
rfemur -9.39672 19.2558 17.2029
rtibia 27.101
rfoot -19.8423 -18.3929
rtoes -1.66608
lfemur -6.4246 -5.57426 -19.4951
ltibia 23.1479
lfoot -21.5147 21.3894
ltoes 2.29155
5
root -1.30637 18.6949 -3.14291 1.62891 -7.94513 1.8723
lowerback 3.40729 -0.402016 -4.131
upperback 0.609862 -0.701671 -1.0902
thorax -1.24808 -0.33651 1.22689
lowerneck -8.41793 -6.17238 -10.797
upperneck 6.63324 -8.77022 18.114
head 4.69504 -3.77545 6.83596
rclavicle 2.24378e-014 1.43125e-014
rhumerus -36.5145 -1.82399 -76.157
rradius 28.94
rwrist 16.4367
rhand -23.1756 -0.341572
rfingers 7.12502
rthumb 3.27356 -30.2962
lclavicle 2.24378e-014 1.43125e-014
lhumerus -31.6303 12.5652 77.9839
lradius 22.8458
lwrist -10.2322
lhand -28.7168 19.3093
lfingers 7.12502
lthumb -2.07821 49.2789
rfemur -9.46468 19.1678 17.1859
rtibia 27.1218
rfoot -19.8621 -18.3938
rtoes -1.51939
lfemur -6.44682 -5.79435 -19.4915
ltibia 23.0922
lfoot -21.6467 21.4526
ltoes 2.75762
6
root -1.30723 18.6951 -3.14714 1.67317 -7.80731 1.93923
lowerback 3.42178 -0.377288 -4.12504
upperback 0.626551 -0.668882 -1.09963
thorax -1.2409 -0.32052 1.21253
lowerneck -8.45223 -6.14506 -10.7649
upperneck 6.59984 -8.71884 18.0312
head 4.6774 -3.75222 6.80698
rclavicle -8.79622e-015 -8.74653e-015
rhumerus -36.4473 -2.61893 -75.4156
rradius 29.2928
rwrist 19.9954
rhand -22.0505 1.33596
rfingers 7.12502
rthumb 4.36004 -28.5992
lclavicle -8.79622e-015 -8.74653e-015
lhumerus -31.7355 12.245 78.0783
lradius 23.3678
lwrist -9.79883
lhand -28.836 19.3464
lfingers 7.12502
lthumb -2.19328 49.3149
rfemur -9.52791 19.068 17.1016
rtibia 27.1538
rfoot -19.8969 -18.4159
rtoes -1.29887
lfemur -6.4955 -5.88206 -19.5444
ltibia 23.0386
lfoot -21.6493 21.3573
ltoes 2.8355
7
root -1.30821 18.6973 -3.15089 1.71542 -7.5986 2.07323
lowerback 3.45102 -0.395696 -4.19913
upperback 0.643097 -0.697201 -1.1063
thorax -1.238 -0.334639 1.2485
lowerneck -8.53352 -6.10825 -10.7669
upperneck 6.58949 -8.64936 17.9439
head 4.67333 -3.71827 6.78331
rclavicle 2.20154e-014 6.75868e-015
rhumerus -36.3303 -2.51099 -75.2965
rradius 28.8263
rwrist 19.0426
rhand -24.0094 6.89421
rfingers 7.12502
rthumb 2.46826 -23.0713
lclavicle 2.20154e-014 6.75868e-015
lhumerus -31.78 12.069 78.1289
lradius 23.7039
lwrist -9.463
lhand -28.8493 19.4817
lfingers 7.12502
lthumb -2.20621 49.45
rfemur -9.58903 18.8937 16.9493
rtibia 27.1937
rfoot -19.9188 -18.4637
rtoes -1.27145
lfemur -6.56503 -5.95747 -19.6541
ltibia 22.9975
lfoot -21.6568 21.1572
ltoes 3.11478
8
root -1.31062 18.7 -3.15808 1.81636 -7.37452 2.13427
lowerback 3.45714 -0.410093 -4.20447
upperback 0.63419 -0.717101 -1.10299
thorax -1.24944 -0.344194 1.25585
lowerneck -8.54144 -6.07649 -10.6956
upperneck 6.55804 -8.59148 17.7931
head 4.64552 -3.69514 6.72635
rclavicle 1.93318e-014 -9.14409e-015
rhumerus -36.2306 -2.53263 -75.1216
rradius 28.5318
rwrist 19.0015
rhand -24.3409 5.42305
rfingers 7.12502
rthumb 2.1481 -24.5459
lclavicle 1.93318e-014 -9.14409e-015
lhumerus -31.8004 11.8809 78.1297
lradius 23.9914
lwrist -9.25588
lhand -28.8009 19.8347
lfingers 7.12502
lthumb -2.1594 49.8035
rfemur -9.71099 18.7989 16.8687
rtibia 27.2175
rfoot -19.9338 -18.5813
rtoes -1.03211
lfemur -6.74097 -6.01554 -19.6559
ltibia 22.9967
lfoot -21.6146 20.9349
ltoes 3.76461
9
root -1.31587 18.7026 -3.17036 1.97173 -7.10176 2.06589
lowerback 3.47982 -0.402876 -4.08171
upperback 0.593785 -0.705104 -1.07948
thorax -1.30552 -0.337084 1.2113
lowerneck -8.47902 -6.06319 -10.6093
upperneck 6.50692 -8.56269 17.6342
head 4.60306 -3.6901 6.66282
rclavicle -1.57288e-014 4.37326e-015
rhumerus -36.2172 -2.8888 -74.6944
rradius 28.6407
rwrist 20.5258
rhand -22.6555 2.93775
rfingers 7.12502
rthumb 3.77581 -27.0085
lclavicle -1.57288e-014 4.37326e-015
lhumerus -31.8535 11.6562 78.1164
lradius 24.3529
lwrist -9.23603
lhand -28.7584 20.0282
lfingers 7.12502
lthumb -2.11842 49.9974
rfemur -9.88113 18.7774 16.9389
rtibia 27.2251
rfoot -20.0301 -18.7777
rtoes -0.688624
lfemur -7.01093 -6.0089 -19.4818
ltibia 23.0099
lfoot -21.412 20.6748
ltoes 4.5301
10
root -1.32153 18.7027 -3.17737 2.10415 -6.81524 1.95966
lowerback 3.46828 -0.409746 -3.9456
upperback 0.598793 -0.707626 -1.03103
thorax -1.29482 -0.339044 1.18491
lowerneck -8.4559 -6.02888 -10.5431
upperneck 6.39016 -8.49497 17.5129
head 4.54513 -3.66485 6.61774
rclavicle 1.73937e-015 1.31198e-014
rhumerus -36.1871 -2.51114 -74.7318
rradius 28.5278
rwrist 19.1583
rhand -23.8808 3.74408
rfingers 7.12502
rthumb 2.59243 -26.2199
lclavicle 1.73937e-015 1.31198e-014
lhumerus -31.8921 11.3804 78.145
lradius 24.7204
lwrist -8.9481
lhand -28.8665 19.8923
lfingers 7.12502
lthumb -2.22274 49.8605
rfemur -9.98229 18.7119 17.0679
rtibia 27.216
rfoot -20.0769 -19.0667
rtoes -0.522772
lfemur -7.25401 -5.84813 -19.2703
ltibia 23.0511
lfoot -21.1573 20.295
ltoes 4.8473
11
root -1.32637 18.6992 -3.17623 2.12404 -6.58175 1.95838
lowerback 3.47086 -0.390611 -3.90366
upperback 0.636783 -0.679342 -1.02048
thorax -1.25897 -0.326143 1.17087
lowerneck -8.55379 -5.99502 -10.5112
upperneck 6.45949 -8.44614 17.447
head 4.57075 -3.63609 6.59354
rclavicle 3.09359e-014 8.74653e-015
rhumerus -36.1796 -2.17798 -74.7987
rradius 28.4137
rwrist 17.6081
rhand -25.1716 4.76457
rfingers 7.12502
rthumb 1.34588 -25.2109
lclavicle 3.09359e-014 8.74653e-015
lhumerus -31.8988 10.9994 78.2015
lradius 24.9887
lwrist -8.52804
lhand -29.0439 19.9241
lfingers 7.12502
lthumb -2.39413 49.8904
rfemur -9.94666 18.6181 17.109
rtibia 27.1972
rfoot -20.0218 -19.3694
rtoes -0.716011
lfemur -7.3499 -5.61897 -19.1977
ltibia 23.1161
lfoot -20.9973 19.8001
ltoes 4.12584
